<svg width="32" height="32" viewBox="0 0 32 32" fill="none" xmlns="http://www.w3.org/2000/svg">
<g clip-path="url(#clip0_4845_261)">
<path d="M24.7887 12.1453C24.7024 12.0372 24.5978 12.0584 24.543 12.0805C24.497 12.0991 24.3918 12.1586 24.4063 12.3078C24.4238 12.4868 24.4336 12.6694 24.4355 12.8504C24.4433 13.6016 24.142 14.3374 23.6089 14.8694C23.0791 15.3979 22.3824 15.6826 21.6405 15.6744C20.6271 15.6614 19.7866 15.1329 19.2098 14.1458C18.7329 13.3296 18.9425 12.2769 19.1645 11.1624C19.2943 10.51 19.4286 9.83538 19.4286 9.19332C19.4286 4.194 16.0678 1.30975 14.0644 0.0354404C14.023 0.00912793 13.9835 -0.00012207 13.9486 -0.00012207C13.8918 -0.00012207 13.8468 0.0243779 13.8246 0.0393779C13.7816 0.0685029 13.7128 0.134878 13.7349 0.252378C14.5006 4.31875 12.2166 6.76444 9.79852 9.35369C7.30602 12.0226 4.48096 15.0477 4.48096 20.5034C4.48096 26.8427 9.63827 32 15.9775 32C21.197 32 25.799 28.361 27.1685 23.1506C28.1023 19.5979 27.1237 15.0724 24.7887 12.1453ZM16.2643 29.5461C14.677 29.6184 13.1673 29.0491 12.0143 27.9466C10.8736 26.8559 10.2193 25.3337 10.2193 23.7703C10.2193 20.8365 11.3411 18.6828 14.3582 15.8235C14.4076 15.7767 14.4581 15.7619 14.5022 15.7619C14.5421 15.7619 14.5768 15.7741 14.6006 15.7855C14.6508 15.8097 14.7333 15.8696 14.7221 15.9991C14.6143 17.2544 14.6161 18.2963 14.7276 19.0961C15.0126 21.1389 16.5081 22.5114 18.449 22.5114C19.4006 22.5114 20.3071 22.1533 21.0014 21.503C21.0282 21.4772 21.0609 21.4584 21.0966 21.4482C21.1324 21.438 21.1701 21.4367 21.2065 21.4444C21.2521 21.4543 21.3133 21.4823 21.3454 21.5596C21.6333 22.2547 21.7804 22.9925 21.7826 23.7524C21.7918 26.8103 19.3163 29.4093 16.2643 29.5461Z" fill="white"/>
</g>
<defs>
<clipPath id="clip0_4845_261">
<rect width="32" height="32" fill="white"/>
</clipPath>
</defs>
</svg>
